# File created by Blade
# Date/Time:  Thu Sep 25 19:32:06 2014
# Frame Rate: 120.000 fps
#------------------------------------------------------
:FULLY-SPECIFIED
:DEGREES
2213
root 5.896875 31.470514 -2.970458 3.129717 -19.813403 -12.802832
Spine -14.887327 8.761642 -40.564568
Head 13.339562 37.727139 -9.963872
LeftShoulder -7.118075 24.152175 3.268673
LeftArm 14.094713 16.779205 -55.008473
LeftForeArm 2.776187 -0.000000 9.170751
LeftHand -26.676449 -0.000000 -5.165589
LeftHandThumb1 -26.253704 0.000000 33.147579
RightShoulder -18.104199 24.301802 -53.074031
RightArm 28.188949 38.543358 19.072424
RightForeArm 26.381332 -0.000000 29.231016
RightHand 5.159406 -0.000000 -3.103364
RightHandThumb1 -24.326973 -0.000000 -32.862282
LeftUpLeg -17.619481 6.578842 6.633119
LeftLeg 44.056347 -0.000000 -0.000000
LeftFoot -35.612950 17.567420 -21.300359
LeftToeBase 10.027256 -0.000000 -0.000000
RightUpLeg 11.054172 -1.600904 27.271709
RightLeg 1.467855 -0.000000 -0.000000
RightFoot -8.816815 3.386134 -4.530613
RightToeBase -2.555309 -0.000000 0.000000
2214
root 5.891289 31.468554 -2.979016 3.149712 -19.765643 -12.821344
Spine -14.945037 8.746547 -40.627151
Head 13.455026 37.698841 -9.831600
LeftShoulder -7.154098 24.131018 3.279908
LeftArm 14.101965 16.784858 -54.965282
LeftForeArm 2.788970 -0.000000 9.196840
LeftHand -26.693405 -0.000000 -5.232765
LeftHandThumb1 -26.253704 0.000000 33.147579
RightShoulder -18.074569 24.347878 -53.061918
RightArm 28.101426 38.523909 19.028740
RightForeArm 26.366472 -0.000000 29.216844
RightHand 5.155149 -0.000000 -3.254587
RightHandThumb1 -24.326973 -0.000000 -32.862282
LeftUpLeg -17.673016 6.493865 6.661975
LeftLeg 44.094383 -0.000000 -0.000000
LeftFoot -35.643569 17.581496 -21.340912
LeftToeBase 10.050910 -0.000000 -0.000000
RightUpLeg 11.018001 -1.604249 27.307039
RightLeg 1.459422 -0.000000 -0.000000
RightFoot -8.813330 3.392466 -4.490836
RightToeBase -2.522022 -0.000000 0.000000
2215
root 5.885823 31.466300 -2.987089 3.152344 -19.713251 -12.844157
Spine -14.969033 8.767392 -40.682441
Head 13.535490 37.659010 -9.734405
LeftShoulder -7.171589 24.091605 3.286294
LeftArm 14.130386 16.797585 -54.906279
LeftForeArm 2.826335 -0.000000 9.193106
LeftHand -26.682694 -0.000000 -5.216364
LeftHandThumb1 -26.253704 0.000000 33.147579
RightShoulder -18.062783 24.333314 -53.039700
RightArm 28.019109 38.553246 18.969347
RightForeArm 26.435002 -0.000000 29.207940
RightHand 5.221526 -0.000000 -3.298781
RightHandThumb1 -24.326973 -0.000000 -32.862282
LeftUpLeg -17.710363 6.417341 6.697681
LeftLeg 44.135649 -0.000000 -0.000000
LeftFoot -35.651984 17.598746 -21.353981
LeftToeBase 10.055984 -0.000000 -0.000000
RightUpLeg 10.988353 -1.671705 27.335160
RightLeg 1.470579 -0.000000 -0.000000
RightFoot -8.824152 3.457698 -4.441023
RightToeBase -2.481176 -0.000000 0.000000
2216
root 5.880085 31.463525 -2.998341 3.187731 -19.649495 -12.877701
Spine -15.009355 8.757997 -40.736789
Head 13.634515 37.628584 -9.576033
LeftShoulder -7.189792 24.154989 3.289636
LeftArm 14.247687 16.810146 -54.807643
LeftForeArm 2.811170 0.000000 9.204103
LeftHand -26.735375 -0.000000 -5.165288
LeftHandThumb1 -26.253704 0.000000 33.147579
RightShoulder -18.030618 24.294658 -52.983465
RightArm 27.939434 38.632341 18.881448
RightForeArm 26.355236 -0.000000 29.176801
RightHand 5.097930 -0.000000 -3.080248
RightHandThumb1 -24.326973 -0.000000 -32.862282
LeftUpLeg -17.790969 6.324519 6.740885
LeftLeg 44.193007 -0.000000 -0.000000
LeftFoot -35.686929 17.615768 -21.389834
LeftToeBase 10.055101 -0.000000 -0.000000
RightUpLeg 10.925033 -1.696031 27.385333
RightLeg 1.477922 -0.000000 -0.000000
RightFoot -8.818695 3.447531 -4.416424
RightToeBase -2.525209 -0.000000 0.000000
2217
root 5.874427 31.460376 -3.009115 3.198430 -19.589991 -12.906793
Spine -15.021748 8.776624 -40.788826
Head 13.689111 37.579922 -9.496739
LeftShoulder -7.173185 24.161277 3.289449
LeftArm 14.319272 16.845138 -54.712309
LeftForeArm 2.818720 -0.000000 9.195581
LeftHand -26.768169 0.000000 -5.152656
LeftHandThumb1 -26.253704 0.000000 33.147579
RightShoulder -18.009819 24.249877 -52.919303
RightArm 27.866045 38.695529 18.755528
RightForeArm 26.392584 -0.000000 29.136335
RightHand 5.190807 -0.000000 -3.266887
RightHandThumb1 -24.326973 -0.000000 -32.862282
LeftUpLeg -17.848204 6.252071 6.782049
LeftLeg 44.254266 -0.000000 -0.000000
LeftFoot -35.687257 17.629357 -21.379962
LeftToeBase 9.929309 -0.000000 -0.000000
RightUpLeg 10.889000 -1.724824 27.431169
RightLeg 1.477211 -0.000000 -0.000000
RightFoot -8.819984 3.452240 -4.366239
RightToeBase -2.516314 -0.000000 0.000000
2218
root 5.868815 31.456524 -3.019981 3.222791 -19.532359 -12.944034
Spine -15.053760 8.782564 -40.837572
Head 13.797713 37.546041 -9.336835
LeftShoulder -7.199762 24.150213 3.283154
LeftArm 14.392737 16.842527 -54.622648
LeftForeArm 2.915661 -0.000000 9.196426
LeftHand -26.709442 -0.000000 -5.274271
LeftHandThumb1 -26.253704 0.000000 33.147579
RightShoulder -17.956378 24.298946 -52.877264
RightArm 27.625164 38.617032 18.493377
RightForeArm 26.551323 -0.000000 29.154625
RightHand 5.194890 0.000000 -3.349783
RightHandThumb1 -24.326973 -0.000000 -32.862282
LeftUpLeg -17.915867 6.137376 6.842458
LeftLeg 44.315434 -0.000000 -0.000000
LeftFoot -35.681644 17.635754 -21.329516
LeftToeBase 10.103533 -0.000000 -0.000000
RightUpLeg 10.839058 -1.760824 27.482279
RightLeg 1.485894 -0.000000 -0.000000
RightFoot -8.827429 3.470223 -4.307818
RightToeBase -2.504379 -0.000000 0.000000
2219
root 5.864444 31.452049 -3.031127 3.255762 -19.469153 -12.988450
Spine -15.088288 8.795183 -40.869488
Head 13.889843 37.493388 -9.244400
LeftShoulder -7.214435 24.141193 3.254186
LeftArm 14.483118 16.908767 -54.498549
LeftForeArm 2.921928 -0.000000 9.192198
LeftHand -26.748453 -0.000000 -5.184173
LeftHandThumb1 -26.253704 0.000000 33.147579
RightShoulder -17.943822 24.245700 -52.853654
RightArm 27.571149 38.718146 18.446515
RightForeArm 26.527832 -0.000000 29.117752
RightHand 5.161844 -0.000000 -3.277376
RightHandThumb1 -24.326973 -0.000000 -32.862282
LeftUpLeg -18.001160 6.090221 6.884626
LeftLeg 44.387109 -0.000000 -0.000000
LeftFoot -35.735549 17.674732 -21.408360
LeftToeBase 10.100364 -0.000000 -0.000000
RightUpLeg 10.778520 -1.790708 27.539745
RightLeg 1.499218 -0.000000 -0.000000
RightFoot -8.839773 3.482936 -4.279890
RightToeBase -2.507472 -0.000000 0.000000
2220
root 5.859644 31.447893 -3.042008 3.292770 -19.411289 -13.036847
Spine -15.120067 8.814797 -40.899878
Head 13.925861 37.433050 -9.190251
LeftShoulder -7.226086 24.136443 3.213553
LeftArm 14.580734 16.930230 -54.369045
LeftForeArm 2.939584 -0.000000 9.162058
LeftHand -26.701334 -0.000000 -5.248750
LeftHandThumb1 -26.253704 0.000000 33.147579
RightShoulder -17.952811 24.238134 -52.852250
RightArm 27.449049 38.730392 18.333030
RightForeArm 26.460654 -0.000000 29.092394
RightHand 5.207958 -0.000000 -3.336743
RightHandThumb1 -24.326973 -0.000000 -32.862282
LeftUpLeg -18.085583 6.043226 6.941447
LeftLeg 44.462380 -0.000000 -0.000000
LeftFoot -35.763346 17.646864 -21.431307
LeftToeBase 10.119212 -0.000000 -0.000000
RightUpLeg 10.724983 -1.798844 27.604244
RightLeg 1.500370 -0.000000 -0.000000
RightFoot -8.846255 3.495484 -4.232709
RightToeBase -2.475288 -0.000000 0.000000
2221
root 5.854511 31.443545 -3.053972 3.306793 -19.341773 -13.088268
Spine -15.109933 8.836160 -40.922130
Head 13.961615 37.357382 -9.140406
LeftShoulder -7.219352 24.091182 3.175346
LeftArm 14.631416 16.947201 -54.255411
LeftForeArm 2.978876 -0.000000 9.161828
LeftHand -26.697840 -0.000000 -5.424808
LeftHandThumb1 -26.253704 0.000000 33.147579
RightShoulder -17.955285 24.263079 -52.848179
RightArm 27.284760 38.712704 18.155383
RightForeArm 26.450654 0.000000 29.048509
RightHand 5.266868 0.000000 -3.355165
RightHandThumb1 -24.326973 -0.000000 -32.862282
LeftUpLeg -18.150156 5.960902 7.015793
LeftLeg 44.531879 -0.000000 -0.000000
LeftFoot -35.763439 17.649322 -21.378626
LeftToeBase 10.147384 -0.000000 -0.000000
RightUpLeg 10.684328 -1.826307 27.674134
RightLeg 1.504754 -0.000000 -0.000000
RightFoot -8.847404 3.486239 -4.197970
RightToeBase -2.482225 -0.000000 0.000000
2222
root 5.849675 31.438493 -3.064834 3.322382 -19.276045 -13.126463
Spine -15.116676 8.859155 -40.966669
Head 14.053086 37.292856 -9.011533
LeftShoulder -7.211872 24.060106 3.175561
LeftArm 14.701878 17.015854 -54.155783
LeftForeArm 2.899667 0.000000 9.158452
LeftHand -26.704237 -0.000000 -5.400277
LeftHandThumb1 -26.253704 0.000000 33.147579
RightShoulder -17.934390 24.257051 -52.814642
RightArm 27.126043 38.725513 17.981527
RightForeArm 26.511694 -0.000000 29.009447
RightHand 5.218166 -0.000000 -3.364915
RightHandThumb1 -24.326973 -0.000000 -32.862282
LeftUpLeg -18.217108 5.910710 7.068862
LeftLeg 44.606299 -0.000000 -0.000000
LeftFoot -35.767276 17.648928 -21.336163
LeftToeBase 10.147545 -0.000000 -0.000000
RightUpLeg 10.637796 -1.859302 27.730030
RightLeg 1.518220 -0.000000 -0.000000
RightFoot -8.869178 3.479620 -4.189699
RightToeBase -2.464957 -0.000000 0.000000
2223
root 5.845219 31.433413 -3.075978 3.329657 -19.204978 -13.154782
Spine -15.102461 8.861508 -41.019707
Head 14.096133 37.276435 -8.889994
LeftShoulder -7.211560 24.028683 3.177712
LeftArm 14.746563 16.989132 -54.097092
LeftForeArm 2.839624 -0.000000 9.181070
LeftHand -26.695499 -0.000000 -5.232971
LeftHandThumb1 -26.253704 0.000000 33.147579
RightShoulder -17.934647 24.220476 -52.769459
RightArm 27.039998 38.809266 17.883295
RightForeArm 26.377109 -0.000000 28.931971
RightHand 5.249641 -0.000000 -3.652978
RightHandThumb1 -24.326973 -0.000000 -32.862282
LeftUpLeg -18.288910 5.902126 7.097888
LeftLeg 44.687924 -0.000000 -0.000000
LeftFoot -35.789417 17.630254 -21.400728
LeftToeBase 10.078328 -0.000000 -0.000000
RightUpLeg 10.602099 -1.887239 27.780580
RightLeg 1.513500 -0.000000 -0.000000
RightFoot -8.877613 3.465533 -4.153595
RightToeBase -2.473466 -0.000000 0.000000
2224
root 5.840291 31.427733 -3.085861 3.337726 -19.133268 -13.201014
Spine -15.102622 8.861289 -41.041733
Head 14.237666 37.247744 -8.708922
LeftShoulder -7.181156 24.010837 3.175302
LeftArm 14.729776 16.810746 -54.094986
LeftForeArm 2.892057 -0.000000 9.206312
LeftHand -26.610575 -0.000000 -5.224537
LeftHandThumb1 -26.253704 0.000000 33.147579
RightShoulder -17.905887 24.182170 -52.726901
RightArm 26.934739 38.856806 17.765380
RightForeArm 26.554875 0.000000 28.879754
RightHand 5.161776 -0.000000 -3.556595
RightHandThumb1 -24.326973 -0.000000 -32.862282
LeftUpLeg -18.346601 5.843427 7.165610
LeftLeg 44.757294 -0.000000 -0.000000
LeftFoot -35.783376 17.616877 -21.313723
LeftToeBase 10.124568 -0.000000 -0.000000
RightUpLeg 10.576138 -1.902792 27.846802
RightLeg 1.501316 -0.000000 -0.000000
RightFoot -8.881672 3.453886 -4.099835
RightToeBase -2.438177 -0.000000 0.000000
